<svg xmlns="http://www.w3.org/2000/svg" width="263" height="130"><defs><style>.c{fill:#fff}</style></defs><text transform="translate(0 122)" font-size="37" font-family="Lato-Black,Lato" font-weight="800" fill="#fff"><tspan x="0" y="0">SNOW</tspan><tspan y="0" fill="#9bc0ff">MOUNT</tspan></text><path class="c" d="M131.813 41.647a.224.224 0 00-.317 0l-16.5 16.511h33.324z"/><path class="c" d="M135.419 22.75a4.943 4.943 0 00-3.518-1.457 4.943 4.943 0 00-3.519 1.459L93 58.161h12.149l21.545-21.563a7.323 7.323 0 015.214-2.161 7.323 7.323 0 015.213 2.159l21.566 21.565h12.147z"/><path class="c" d="M191.953 52.066L145.47 5.588A18.953 18.953 0 00131.979 0a18.954 18.954 0 00-13.493 5.594l-46.44 46.478a3.574 3.574 0 002.528 6.1h8.4L123.4 17.708a12.044 12.044 0 018.574-3.555 12.044 12.044 0 018.573 3.551l40.468 40.468h8.4a3.574 3.574 0 002.527-6.1z"/></svg>