<svg xmlns="http://www.w3.org/2000/svg" width="55.321" height="38.033"><path d="M52.97 3.665C51.47.996 49.841.505 46.525.318 43.212.093 34.883 0 27.667 0S12.1.093 8.8.315c-3.309.19-4.941.678-6.455 3.35C.8 6.331 0 10.922 0 19.006v.028c0 8.049.8 12.675 2.341 15.313 1.514 2.669 3.143 3.153 6.452 3.378 3.312.194 11.645.308 18.875.308s15.545-.114 18.861-.3c3.316-.225 4.944-.709 6.445-3.378 1.559-2.638 2.348-7.264 2.348-15.313v-.032c-.001-8.088-.79-12.679-2.352-15.345zM20.745 29.389V8.644l17.288 10.372z" fill="#fff"/></svg>