<svg xmlns="http://www.w3.org/2000/svg" width="42.546" height="42.545"><defs><style>.a{fill:#fff}</style></defs><path class="a" d="M29.25 0H13.3A13.3 13.3 0 000 13.3v15.95a13.3 13.3 0 0013.3 13.3h15.95a13.3 13.3 0 0013.3-13.3V13.3A13.3 13.3 0 0029.25 0zm9.307 29.25a9.317 9.317 0 01-9.307 9.307H13.3a9.317 9.317 0 01-9.311-9.307V13.3A9.317 9.317 0 0113.3 3.989h15.95a9.317 9.317 0 019.307 9.311z"/><path class="a" d="M21.272 10.636a10.636 10.636 0 1010.636 10.636 10.637 10.637 0 00-10.636-10.636zm0 17.284a6.648 6.648 0 116.648-6.648 6.657 6.657 0 01-6.648 6.648z"/><circle class="a" cx="1.417" cy="1.417" r="1.417" transform="translate(31.29 8.421)"/></svg>